<mxfile host="app.diagrams.net" modified="2021-11-10T22:47:55.458Z" agent="5.0 (Macintosh; Intel Mac OS X 10_15_7) AppleWebKit/537.36 (KHTML, like Gecko) Chrome/95.0.4638.69 Safari/537.36" etag="N5ZK5rFR56tsGcpR8T6o" version="15.7.3" type="github">
  <diagram id="f5GZlIzyZnxSGYJT9G3B" name="Page-1">
    <mxGraphModel dx="1298" dy="721" grid="1" gridSize="10" guides="1" tooltips="1" connect="1" arrows="1" fold="1" page="1" pageScale="1" pageWidth="827" pageHeight="1169" math="0" shadow="0">
      <root>
        <mxCell id="0" />
        <mxCell id="1" parent="0" />
        <mxCell id="PesfteonWnOpIm44CVu_-4" style="edgeStyle=orthogonalEdgeStyle;rounded=0;orthogonalLoop=1;jettySize=auto;html=1;exitX=0.25;exitY=1;exitDx=0;exitDy=0;entryX=0.25;entryY=0;entryDx=0;entryDy=0;" parent="1" source="PesfteonWnOpIm44CVu_-1" target="PesfteonWnOpIm44CVu_-3" edge="1">
          <mxGeometry relative="1" as="geometry" />
        </mxCell>
        <mxCell id="PesfteonWnOpIm44CVu_-5" value="Messages,&amp;nbsp;&lt;br&gt;Reactions,&amp;nbsp;&lt;br&gt;Voice&amp;nbsp;" style="edgeLabel;html=1;align=center;verticalAlign=middle;resizable=0;points=[];" parent="PesfteonWnOpIm44CVu_-4" vertex="1" connectable="0">
          <mxGeometry x="-0.2462" y="4" relative="1" as="geometry">
            <mxPoint as="offset" />
          </mxGeometry>
        </mxCell>
        <mxCell id="PesfteonWnOpIm44CVu_-1" value="User" style="rounded=0;whiteSpace=wrap;html=1;" parent="1" vertex="1">
          <mxGeometry x="270" y="100" width="120" height="60" as="geometry" />
        </mxCell>
        <mxCell id="PesfteonWnOpIm44CVu_-10" style="edgeStyle=orthogonalEdgeStyle;rounded=0;orthogonalLoop=1;jettySize=auto;html=1;exitX=0;exitY=0.75;exitDx=0;exitDy=0;entryX=0.75;entryY=1;entryDx=0;entryDy=0;" parent="1" source="PesfteonWnOpIm44CVu_-2" target="PesfteonWnOpIm44CVu_-3" edge="1">
          <mxGeometry relative="1" as="geometry" />
        </mxCell>
        <mxCell id="PesfteonWnOpIm44CVu_-11" value="Messages,&amp;nbsp;&lt;br&gt;Reactions,&lt;br&gt;Voice&amp;nbsp;" style="edgeLabel;html=1;align=center;verticalAlign=middle;resizable=0;points=[];" parent="PesfteonWnOpIm44CVu_-10" vertex="1" connectable="0">
          <mxGeometry x="0.1238" y="3" relative="1" as="geometry">
            <mxPoint as="offset" />
          </mxGeometry>
        </mxCell>
        <mxCell id="PesfteonWnOpIm44CVu_-12" style="edgeStyle=orthogonalEdgeStyle;rounded=0;orthogonalLoop=1;jettySize=auto;html=1;exitX=0;exitY=1;exitDx=0;exitDy=0;entryX=0.5;entryY=1;entryDx=0;entryDy=0;" parent="1" source="PesfteonWnOpIm44CVu_-2" target="PesfteonWnOpIm44CVu_-3" edge="1">
          <mxGeometry relative="1" as="geometry" />
        </mxCell>
        <mxCell id="PesfteonWnOpIm44CVu_-13" value="Permissions" style="edgeLabel;html=1;align=center;verticalAlign=middle;resizable=0;points=[];" parent="PesfteonWnOpIm44CVu_-12" vertex="1" connectable="0">
          <mxGeometry x="0.0759" y="-1" relative="1" as="geometry">
            <mxPoint as="offset" />
          </mxGeometry>
        </mxCell>
        <mxCell id="PesfteonWnOpIm44CVu_-14" style="edgeStyle=orthogonalEdgeStyle;rounded=0;orthogonalLoop=1;jettySize=auto;html=1;exitX=0.25;exitY=0;exitDx=0;exitDy=0;entryX=1;entryY=0.75;entryDx=0;entryDy=0;" parent="1" source="PesfteonWnOpIm44CVu_-2" target="PesfteonWnOpIm44CVu_-1" edge="1">
          <mxGeometry relative="1" as="geometry" />
        </mxCell>
        <mxCell id="PesfteonWnOpIm44CVu_-15" value="Direct messages" style="edgeLabel;html=1;align=center;verticalAlign=middle;resizable=0;points=[];" parent="PesfteonWnOpIm44CVu_-14" vertex="1" connectable="0">
          <mxGeometry x="0.0168" relative="1" as="geometry">
            <mxPoint x="1" as="offset" />
          </mxGeometry>
        </mxCell>
        <mxCell id="PesfteonWnOpIm44CVu_-2" value="Bot application" style="rounded=1;whiteSpace=wrap;html=1;align=center;" parent="1" vertex="1">
          <mxGeometry x="540" y="270" width="210" height="120" as="geometry" />
        </mxCell>
        <mxCell id="PesfteonWnOpIm44CVu_-8" style="edgeStyle=orthogonalEdgeStyle;rounded=0;orthogonalLoop=1;jettySize=auto;html=1;exitX=1;exitY=0.25;exitDx=0;exitDy=0;entryX=0;entryY=0.25;entryDx=0;entryDy=0;" parent="1" source="PesfteonWnOpIm44CVu_-3" target="PesfteonWnOpIm44CVu_-2" edge="1">
          <mxGeometry relative="1" as="geometry" />
        </mxCell>
        <mxCell id="PesfteonWnOpIm44CVu_-9" value="Messages,&amp;nbsp;&lt;br&gt;Reactions,&amp;nbsp;&lt;br&gt;Voice" style="edgeLabel;html=1;align=center;verticalAlign=middle;resizable=0;points=[];" parent="PesfteonWnOpIm44CVu_-8" vertex="1" connectable="0">
          <mxGeometry x="-0.1355" y="-1" relative="1" as="geometry">
            <mxPoint as="offset" />
          </mxGeometry>
        </mxCell>
        <mxCell id="PesfteonWnOpIm44CVu_-3" value="Discord" style="rounded=0;whiteSpace=wrap;html=1;align=center;" parent="1" vertex="1">
          <mxGeometry x="270" y="290" width="120" height="60" as="geometry" />
        </mxCell>
      </root>
    </mxGraphModel>
  </diagram>
</mxfile>
